<svg width="572" height="90" xmlns="http://www.w3.org/2000/svg" class="iconLeftSlogan">
 <!---->

 <!---->
 <!---->
 <!---->
 <!---->
 <g>
  <title>Layer 1</title>
  <g transform="matrix(5.67108 0 0 5.67108 116.13 -0.73724)" fill="white" id="f17ef39d-ca93-484d-afaf-207b9e2731aa">
   <path id="svg_1" d="m1.58661,11.47915l4.14,-10.22l-2.31,0l-1.34,3.4l-0.72,2l-0.73,-2.07l-1.33,-3.33l-2.31,0l4.15,10.22l0.45,0zm7.36,-0.21l0,-10.01l-2,0l0,10.01l2,0l0,0zm9.51,0l0,0l-2.33,-4.13c2.94,-0.85 2.59,-5.88 -0.98,-5.88l-3.95,0l0,10.01l2.01,0l0,-3.82l0.96,0l2.02,3.82l2.27,0zm-5.25,-8.01l1.76,0c1.36,0 1.36,2.24 0,2.24l-1.76,0l0,0l0,-2.24zm10.23,8.01l0,-8.01l2.49,0l0,-1.99l-6.98,0l0,1.99l2.49,0l0,8.01l2,0l0,0zm11.19,-3.49l0,-6.52l-1.99,0l0,6.51c0,2.1 -3.25,2.1 -3.25,0l0,-6.51l-2,0l0,6.52c0,4.76 7.24,4.76 7.24,0l0,0zm1.31,3.49l2.27,0l0.39,-1.08l3.32,0l0.41,1.08l2.25,0l-4.21,-10.37l-0.21,0l-4.22,10.37l0,0zm3.39,-2.95l0.94,-2.61l0.91,2.61l-1.85,0l0,0zm6.65,-7.06l0,0l0,10.01l5.18,0l0,-2l-3.18,0l0,-8.01l-2,0zm12.08,10.01l0,0l0,-2l-3.18,0l0,-2l2.64,0l0,-2.01l-2.64,0l0,-2l3.01,0l0,-2l-5.01,0l0,10.01l5.18,0zm4.86,-10.01l-2.98,0l0,10.01l2.98,0c6.66,0 6.66,-10.01 0,-10.01l0,0zm0,2c3.89,0 3.89,6.01 0,6.01l-0.98,0l0,-6.01l0.98,0l0,0zm5.66,8.01l2.26,0l0.4,-1.08l3.31,0l0.41,1.08l2.25,0l-4.21,-10.37l-0.21,0l-4.21,10.37l0,0zm3.38,-2.95l0.94,-2.61l0.91,2.61l-1.85,0l0,0z"/>
  </g>
  <g fill="white" transform="matrix(1.113407806675871,0,0,1.113407806675871,-236.40496234963814,-239.44891028334558)" id="bfc52b33-3870-44ba-90d4-86ac109252d9">
   <path id="svg_2" d="m288.869,248.437c-5.1,0 -9.359,3.655 -10.303,8.482l-18.029,-3.017a11.826,11.826 0 0 0 -2.666,-9.303l16.586,-14.645a6.389,6.389 0 0 0 4.915,1.946l0.008,0a6.417,6.417 0 0 0 6.088,-6.4a6.41,6.41 0 0 0 -3.266,-5.582c-0.004,-0.002 -0.008,-0.006 -0.014,-0.008a6.358,6.358 0 0 0 -3.693,-0.793l-0.006,0a6.423,6.423 0 0 0 -5.813,5.806l0,0.016a6.368,6.368 0 0 0 1.395,4.578l-16.586,14.645a11.851,11.851 0 0 0 -15.676,-1.531l-9.626,-12.585a8.156,8.156 0 0 0 2.907,-5.252c0,-0.007 0.003,-0.013 0.003,-0.02a8.123,8.123 0 0 0 -0.487,-3.976c-0.004,-0.013 -0.01,-0.025 -0.016,-0.038a8.169,8.169 0 0 0 -1.758,-2.711c-0.004,-0.004 -0.005,-0.01 -0.009,-0.014c-0.004,-0.003 -0.009,-0.004 -0.012,-0.007a8.198,8.198 0 0 0 -2.703,-1.825a8.128,8.128 0 0 0 -3.113,-0.619c-4.501,0 -8.163,3.662 -8.163,8.163a8.137,8.137 0 0 0 2.437,5.81c0.005,0.006 0.007,0.013 0.012,0.019c0.007,0.006 0.016,0.008 0.022,0.015a8.201,8.201 0 0 0 2.746,1.767a8.127,8.127 0 0 0 3.971,0.485l0.005,0.001c0.008,0 0.015,-0.003 0.021,-0.004a8.115,8.115 0 0 0 3.669,-1.44l9.627,12.586c-2.702,2.179 -4.436,5.513 -4.436,9.246c0,2.975 1.103,5.694 2.916,7.78l-13.21,12.053a8.66,8.66 0 0 0 -0.307,-0.299c-0.004,-0.004 -0.006,-0.01 -0.011,-0.016c-0.005,-0.005 -0.013,-0.007 -0.019,-0.012a8.168,8.168 0 0 0 -5.489,-2.125c-4.501,0 -8.163,3.661 -8.163,8.163a8.11,8.11 0 0 0 0.459,2.692a8.17,8.17 0 0 0 1.663,2.792c0.006,0.008 0.009,0.017 0.016,0.023c0.005,0.006 0.013,0.007 0.018,0.012a8.205,8.205 0 0 0 2.58,1.887l0.028,0.012a8.091,8.091 0 0 0 3.739,0.737l0.002,-0.001c4.229,-0.175 7.637,-3.583 7.813,-7.812l0,-0.001a8.129,8.129 0 0 0 -0.736,-3.743c-0.003,-0.009 -0.007,-0.015 -0.01,-0.021a8.198,8.198 0 0 0 -1.189,-1.856l13.21,-12.053a11.834,11.834 0 0 0 8.564,3.662c1.423,0 2.787,-0.252 4.053,-0.713l8.123,20.762a6.417,6.417 0 0 0 -3.805,5.854c0,3.534 2.875,6.408 6.408,6.408s6.408,-2.874 6.408,-6.408s-2.875,-6.409 -6.408,-6.409c-0.721,0 -1.412,0.121 -2.061,0.342l-8.122,-20.763a11.917,11.917 0 0 0 7.062,-8.699l18.027,3.017c-0.064,0.473 -0.1,0.954 -0.1,1.443c0,5.791 4.711,10.503 10.5,10.503c5.793,0 10.504,-4.712 10.504,-10.503c0.004,-5.791 -4.709,-10.503 -10.5,-10.503zm-8.685,-17.223l4.59,-4.589a5.843,5.843 0 0 1 -4.59,4.589zm-2.549,-11.361l-4.225,4.225a5.848,5.848 0 0 1 4.225,-4.225zm-3.818,8.181a5.776,5.776 0 0 1 -0.564,-2.971l5.369,-5.368a5.778,5.778 0 0 1 2.971,0.562l-0.994,0.996a0.294,0.294 0 0 0 0.207,0.499a0.298,0.298 0 0 0 0.207,-0.086l1.113,-1.114a5.882,5.882 0 0 1 1.791,1.742l-1.176,1.177a0.295,0.295 0 0 0 0,0.414a0.29,0.29 0 0 0 0.414,0l1.068,-1.07c0.422,0.805 0.66,1.718 0.66,2.686c0,0.065 -0.004,0.129 -0.006,0.193l-5.625,5.626c-0.064,0.002 -0.129,0.005 -0.193,0.005a5.783,5.783 0 0 1 -2.688,-0.66l4.844,-4.844a0.292,0.292 0 1 0 -0.412,-0.414l-4.951,4.951a5.834,5.834 0 0 1 -1.74,-1.792l4.451,-4.452a0.292,0.292 0 1 0 -0.412,-0.414l-4.334,4.334zm-48.437,-11.691l-5.786,5.787a7.6,7.6 0 0 1 5.786,-5.787zm-3.47,13.016l4.881,-4.88a0.293,0.293 0 0 0 -0.414,-0.414l-4.884,4.883a7.621,7.621 0 0 1 -1.415,-2.116l4.06,-4.06c0.114,-0.114 0.114,-0.299 0,-0.414s-0.3,-0.114 -0.413,0l-3.883,3.882a7.56,7.56 0 0 1 -0.395,-3.139l6.905,-6.906a7.544,7.544 0 0 1 3.138,0.394l-3.319,3.32a0.292,0.292 0 0 0 0.413,0.413l3.498,-3.498c0.785,0.353 1.5,0.833 2.118,1.418l-3.887,3.884a0.293,0.293 0 0 0 0.206,0.5a0.294,0.294 0 0 0 0.207,-0.086l3.884,-3.882a7.586,7.586 0 0 1 1.375,2.156l-9.917,9.918a7.525,7.525 0 0 1 -2.158,-1.373zm7.003,1.719l0.418,-0.418a0.295,0.295 0 0 0 0,-0.414a0.293,0.293 0 0 0 -0.414,0l-1.022,1.023a7.562,7.562 0 0 1 -3.222,-0.311l9.536,-9.537a7.537,7.537 0 0 1 0.311,3.222l-3.575,3.575a0.292,0.292 0 1 0 0.414,0.413l2.97,-2.97a7.608,7.608 0 0 1 -5.416,5.417zm-15.701,46.698c0,-3.304 2.126,-6.119 5.081,-7.154l-3.729,3.729a0.292,0.292 0 0 0 0.413,0.413l4.44,-4.44a7.564,7.564 0 0 1 3.385,0.147l-9.316,9.317a7.557,7.557 0 0 1 -0.274,-2.012zm15.156,0c0,0.072 -0.004,0.145 -0.006,0.217l-0.698,0.699a0.292,0.292 0 0 0 0.413,0.413l0.208,-0.207a7.597,7.597 0 0 1 -6.374,6.373l3.778,-3.779a0.292,0.292 0 0 0 -0.413,-0.413l-4.271,4.27c-0.071,0.002 -0.144,0.005 -0.215,0.005c-0.984,0 -1.925,-0.19 -2.788,-0.533l9.832,-9.832c0.344,0.862 0.534,1.803 0.534,2.787zm-0.788,-3.36l-10.15,10.15a7.654,7.654 0 0 1 -2.047,-1.487l5.719,-5.72a0.292,0.292 0 0 0 -0.413,-0.413l-5.699,5.698a7.58,7.58 0 0 1 -1.303,-2.23l9.742,-9.741a7.581,7.581 0 0 1 2.23,1.302l-2.939,2.94a0.294,0.294 0 0 0 0.207,0.499c0.075,0 0.15,-0.028 0.207,-0.086l2.959,-2.959a7.601,7.601 0 0 1 1.487,2.047zm35.983,9.768a5.83,5.83 0 0 1 5.824,5.824c0,3.211 -2.613,5.823 -5.824,5.823s-5.824,-2.612 -5.824,-5.823a5.831,5.831 0 0 1 5.824,-5.824zm-14.78,-43.242c3.26,0 6.199,1.39 8.262,3.606l-1.389,1.226a9.408,9.408 0 0 0 -12.367,-1.208l-1.126,-1.471a11.225,11.225 0 0 1 6.62,-2.153zm0,4.386a6.866,6.866 0 0 0 -3.955,1.25l-1.185,-1.548a8.827,8.827 0 0 1 11.575,1.132l-1.461,1.29a6.88,6.88 0 0 0 -4.974,-2.124zm6.319,6.904c0,3.484 -2.834,6.318 -6.318,6.318s-6.318,-2.834 -6.318,-6.318c0,-3.484 2.834,-6.319 6.318,-6.319s6.318,2.834 6.318,6.319zm-10.738,-5.299a6.89,6.89 0 0 0 -0.869,9.728l-1.439,1.314a8.84,8.84 0 0 1 1.124,-12.592l1.184,1.55zm-0.475,10.162a6.885,6.885 0 0 0 7.135,1.664l0.711,1.817a8.824,8.824 0 0 1 -9.285,-2.169l1.439,-1.312zm7.679,1.452a6.928,6.928 0 0 0 3.97,-4.888l1.926,0.322a8.89,8.89 0 0 1 -5.185,6.382l-0.711,-1.816zm4.064,-5.465a6.833,6.833 0 0 0 -1.487,-5.193l1.462,-1.291a8.798,8.798 0 0 1 1.95,6.806l-1.925,-0.322zm-18.138,-0.85c0,-3.544 1.643,-6.71 4.205,-8.782l1.125,1.47a9.425,9.425 0 0 0 -3.479,7.312a9.39,9.39 0 0 0 2.277,6.138l-1.367,1.247a11.243,11.243 0 0 1 -2.761,-7.385zm11.289,11.288a11.258,11.258 0 0 1 -8.133,-3.471l1.367,-1.248a9.402,9.402 0 0 0 6.766,2.867a9.374,9.374 0 0 0 3.164,-0.547l0.676,1.726c-1.2,0.436 -2.492,0.673 -3.84,0.673zm4.384,-0.885l-0.675,-1.726a9.466,9.466 0 0 0 5.545,-6.831l1.826,0.305c-0.72,3.728 -3.281,6.807 -6.696,8.252zm6.794,-8.829l-1.828,-0.306a9.393,9.393 0 0 0 -2.088,-7.289l1.389,-1.225a11.237,11.237 0 0 1 2.527,8.82zm28.908,15.051c-5.467,0 -9.916,-4.448 -9.916,-9.918c0,-0.456 0.033,-0.905 0.094,-1.346l1.73,0.29c-0.045,0.346 -0.07,0.697 -0.07,1.056c0,4.502 3.662,8.163 8.162,8.163c4.502,0 8.164,-3.661 8.164,-8.163c0,-4.5 -3.662,-8.163 -8.164,-8.163c-3.939,0 -7.238,2.809 -7.996,6.529l-1.73,-0.289c0.896,-4.551 4.918,-7.994 9.727,-7.994c5.471,0 9.918,4.449 9.918,9.917c-0.001,5.47 -4.448,9.918 -9.919,9.918zm-7.578,-9.918c0,-4.178 3.4,-7.578 7.578,-7.578c4.18,0 7.578,3.399 7.578,7.578c0,4.18 -3.398,7.578 -7.578,7.578c-4.177,0 -7.578,-3.398 -7.578,-7.578z"/>
  </g>
  <g transform="matrix(1.05187 0 0 1.05187 115.847 56.0134)" fill="white" id="e8053750-dc03-4c83-a976-434845d59d8d">
   <path id="svg_3" d="m-3.47007,16.25178l-1.19,0l0,0.27c0,0.15 0.1,0.23 0.28,0.25l0.14,0c0.07,0 0.17,0.01 0.31,0.01c0.14,0 0.29,0.02 0.46,0.02l0,8.79c-0.17,0 -0.32,0.01 -0.46,0.01c-0.14,0 -0.24,0.02 -0.31,0.02l-0.14,0c-0.18,0.01 -0.27,0.09 -0.27,0.25l0,0.28l1.18,0l5.94,0l0,-0.6l0,-1.46l-0.35,0c-0.2,0 -0.28,0.13 -0.3,0.35c0,0.03 -0.01,0.08 -0.01,0.18c0,0.1 0,0.24 -0.02,0.45c-0.01,0.21 -0.02,0.35 -0.02,0.48l-4.53,0l0,-4.13l3.95,0l0,-0.58l-3.95,0l0,-4l4.53,0c0.02,0.61 0.05,0.99 0.05,1.12c0.02,0.22 0.1,0.33 0.3,0.33l0.35,0l0,-1.45l0,-0.59l-5.94,0zm23.42,0l-0.56,0l-0.03,0l-1.47,0l0,0.27c0,0.15 0.09,0.23 0.27,0.25l0.13,0c0.05,0 0.14,0.01 0.26,0.01c0.13,0 0.27,0.02 0.42,0.02l-3.2,7.85c-0.09,0.21 -0.16,0.43 -0.21,0.69c-0.06,-0.24 -0.13,-0.48 -0.21,-0.69l-3.24,-7.85c0.16,0 0.31,-0.02 0.44,-0.02c0.12,0 0.21,-0.01 0.26,-0.01l0.11,0c0.19,-0.02 0.28,-0.1 0.28,-0.25l0,-0.27l-1.49,0l-0.56,0l-0.61,0l0,0.27c0,0.15 0.1,0.23 0.28,0.25l0.1,0c0.04,0 0.11,0.01 0.18,0.01c0.07,0 0.17,0.02 0.27,0.02l3.86,9.35l0.63,0l3.87,-9.35c0.1,0 0.19,-0.02 0.26,-0.02c0.07,0 0.14,-0.01 0.19,-0.01l0.08,0c0.18,-0.02 0.28,-0.1 0.28,-0.25l0,-0.27l-0.59,0zm9.83,0l-1.19,0l0,0.27c0,0.15 0.1,0.23 0.28,0.25l0.14,0c0.07,0 0.17,0.01 0.31,0.01c0.14,0 0.29,0.02 0.46,0.02l0,8.79c-0.17,0 -0.32,0.01 -0.46,0.01c-0.14,0 -0.24,0.02 -0.31,0.02l-0.14,0c-0.18,0.01 -0.27,0.09 -0.27,0.25l0,0.28l1.18,0l5.94,0l0,-0.6l0,-1.46l-0.35,0c-0.2,0 -0.28,0.13 -0.3,0.35c0,0.03 -0.01,0.08 -0.01,0.18c0,0.1 0,0.24 -0.02,0.45c-0.01,0.21 -0.02,0.35 -0.02,0.48l-4.53,0l0,-4.13l3.95,0l0,-0.58l-3.95,0l0,-4l4.53,0c0.02,0.61 0.05,0.99 0.05,1.12c0.02,0.22 0.1,0.33 0.3,0.33l0.35,0l0,-1.45l0,-0.59l-5.94,0zm23.35,0l-0.63,0l-1.22,0l0,0.27c0,0.15 0.1,0.23 0.28,0.25l0.14,0c0.07,0 0.19,0.01 0.33,0.01c0.14,0 0.3,0.02 0.47,0.02l0,7.75c0,0.13 0,0.27 0.02,0.41l-6.42,-8.58c-0.04,-0.06 -0.07,-0.1 -0.11,-0.12c-0.04,-0.01 -0.08,-0.02 -0.15,-0.02l-0.35,0l-1.19,0l0,0.28c0,0.15 0.1,0.23 0.28,0.25l0.14,0c0.07,0 0.17,0.01 0.31,0.01c0.14,0 0.29,0.02 0.46,0.02l0,8.79c-0.17,0 -0.32,0.01 -0.46,0.01c-0.14,0 -0.24,0.02 -0.31,0.02l-0.14,0c-0.18,0.01 -0.28,0.09 -0.28,0.25l0,0.28l1.19,0l0.61,0l1.22,0l0,-0.28c0,-0.16 -0.1,-0.24 -0.28,-0.25l-0.14,0c-0.07,0 -0.19,-0.02 -0.33,-0.02c-0.14,0 -0.3,-0.01 -0.47,-0.01l0,-7.77c0,-0.13 0,-0.27 -0.01,-0.41l6.44,8.6c0.07,0.1 0.14,0.14 0.25,0.14l0.35,0l0,-9.35c0.17,0 0.31,-0.02 0.45,-0.02c0.14,0 0.25,-0.01 0.32,-0.01l0.13,0c0.18,-0.02 0.28,-0.1 0.28,-0.25l0,-0.27l-1.18,0zm16.73,0l-0.19,0l-7.3,0l-0.21,0l-0.1,0l0,2.04l0.35,0c0.2,0 0.28,-0.11 0.3,-0.33c0,-0.1 0.03,-0.46 0.05,-1.11l2.9,0l0,8.74c-0.17,0 -0.31,0.01 -0.45,0.01c-0.14,0 -0.25,0.02 -0.32,0.02l-0.12,0c-0.19,0.01 -0.28,0.09 -0.28,0.25l0,0.28l1.17,0l0.72,0l1.19,0l0,-0.28c0,-0.16 -0.1,-0.24 -0.28,-0.25l-0.14,0c-0.07,0 -0.17,-0.02 -0.31,-0.02c-0.14,0 -0.3,-0.01 -0.46,-0.01l0,-8.74l2.88,0c0.04,0.72 0.06,1.08 0.06,1.11c0.01,0.22 0.11,0.33 0.3,0.33l0.34,0l0,-2.04l-0.1,0zm27.58,2.88c-0.22,-0.61 -0.54,-1.12 -0.96,-1.55c-0.42,-0.43 -0.91,-0.77 -1.49,-0.99c-0.57,-0.23 -1.23,-0.34 -1.93,-0.34l-3.43,0l-1.19,0l0,0.27c0,0.15 0.1,0.23 0.28,0.25l0.14,0c0.07,0 0.17,0.01 0.31,0.01c0.14,0 0.29,0.02 0.46,0.02l0,8.79c-0.17,0 -0.32,0.01 -0.46,0.01c-0.14,0 -0.24,0.02 -0.31,0.02l-0.14,0c-0.18,0.01 -0.28,0.09 -0.28,0.25l0,0.28l1.19,0l3.43,0c0.7,0 1.36,-0.11 1.93,-0.34c0.58,-0.22 1.07,-0.56 1.49,-0.99c0.42,-0.44 0.74,-0.95 0.96,-1.57c0.23,-0.62 0.35,-1.29 0.35,-2.06c0,-0.75 -0.12,-1.44 -0.35,-2.06zm-0.68,3.92c-0.2,0.55 -0.45,1 -0.8,1.38c-0.35,0.37 -0.77,0.65 -1.26,0.85c-0.49,0.2 -1.04,0.29 -1.64,0.29l-2.72,0l0,-8.75l2.72,0c0.6,0 1.15,0.1 1.64,0.3c0.49,0.19 0.91,0.47 1.26,0.85c0.35,0.38 0.6,0.83 0.8,1.37c0.19,0.55 0.29,1.17 0.29,1.85c0,0.7 -0.1,1.32 -0.29,1.86zm17.31,2.57l-0.09,0l-0.19,0c-0.08,0 -0.16,-0.02 -0.25,-0.02l-2.97,-3.74c-0.08,-0.11 -0.19,-0.21 -0.3,-0.28c0.43,-0.04 0.82,-0.14 1.17,-0.29c0.35,-0.15 0.63,-0.35 0.88,-0.59c0.24,-0.24 0.44,-0.52 0.56,-0.82c0.13,-0.31 0.2,-0.66 0.2,-1.04c0,-0.85 -0.28,-1.48 -0.84,-1.93c-0.56,-0.44 -1.41,-0.66 -2.56,-0.66l-2.41,0l-1.18,0l0,0.27c0,0.15 0.09,0.23 0.27,0.25l0.14,0c0.07,0 0.17,0.01 0.31,0.01c0.14,0 0.29,0.02 0.46,0.02l0,8.79c-0.17,0 -0.32,0.01 -0.46,0.01c-0.14,0 -0.24,0.02 -0.31,0.02l-0.14,0c-0.18,0.01 -0.28,0.09 -0.28,0.25l0,0.28l1.19,0l0.71,0l1.18,0l0,-0.28c0,-0.16 -0.1,-0.24 -0.28,-0.25l-0.14,0c-0.07,0 -0.17,-0.02 -0.31,-0.02c-0.14,0 -0.28,-0.01 -0.45,-0.01l0,-3.92l1.18,0c0.2,0 0.34,0.01 0.42,0.05c0.08,0.05 0.17,0.13 0.25,0.23l3.18,4.02c0.06,0.07 0.1,0.11 0.15,0.14c0.06,0.02 0.13,0.04 0.2,0.04l0.07,0l0.55,0l0.36,0l0,-0.28c0,-0.16 -0.08,-0.24 -0.27,-0.25zm-4.49,-4.48l-1.6,0l0,-4.33l1.7,0c0.88,0 1.55,0.18 2.01,0.52c0.47,0.33 0.69,0.87 0.69,1.57c0,0.35 -0.06,0.64 -0.18,0.92c-0.13,0.28 -0.32,0.5 -0.56,0.7c-0.24,0.2 -0.53,0.36 -0.88,0.46c-0.35,0.1 -0.75,0.16 -1.18,0.16zm15.78,-4.37c0.18,-0.02 0.26,-0.1 0.26,-0.25l0,-0.28l-1.17,0l-0.72,0l-1.19,0l0,0.28c0,0.15 0.1,0.23 0.28,0.25l0.14,0c0.07,0 0.17,0.01 0.31,0.01c0.14,0 0.3,0.02 0.46,0.02l0,8.79c-0.16,0 -0.32,0.01 -0.46,0.01c-0.14,0 -0.24,0.02 -0.31,0.02l-0.14,0c-0.18,0.01 -0.28,0.09 -0.28,0.25l0,0.28l1.19,0l0.72,0l1.17,0l0,-0.28c0,-0.16 -0.08,-0.24 -0.26,-0.25l-0.14,0c-0.07,0 -0.17,-0.02 -0.31,-0.02c-0.14,0 -0.29,-0.01 -0.46,-0.01l0,-8.79c0.17,0 0.32,-0.02 0.46,-0.02c0.14,0 0.24,-0.01 0.31,-0.01l0.14,0zm17.65,-0.52l-0.56,0l-0.03,0l-1.47,0l0,0.27c0,0.15 0.09,0.23 0.27,0.25l0.13,0c0.05,0 0.14,0.01 0.26,0.01c0.13,0 0.27,0.02 0.42,0.02l-3.2,7.85c-0.09,0.21 -0.16,0.43 -0.21,0.69c-0.06,-0.24 -0.13,-0.48 -0.21,-0.69l-3.24,-7.85c0.16,0 0.31,-0.02 0.44,-0.02c0.12,0 0.21,-0.01 0.26,-0.01l0.11,0c0.19,-0.02 0.28,-0.1 0.28,-0.25l0,-0.27l-1.49,0l-0.56,0l-0.61,0l0,0.27c0,0.15 0.1,0.23 0.28,0.25l0.1,0c0.04,0 0.11,0.01 0.18,0.01c0.07,0 0.17,0.02 0.27,0.02l3.86,9.35l0.63,0l3.87,-9.35c0.1,0 0.19,-0.02 0.26,-0.02c0.07,0 0.14,-0.01 0.19,-0.01l0.08,0c0.18,-0.02 0.28,-0.1 0.28,-0.25l0,-0.27l-0.59,0zm9.83,0l-1.19,0l0,0.27c0,0.15 0.1,0.23 0.28,0.25l0.14,0c0.07,0 0.17,0.01 0.31,0.01c0.14,0 0.29,0.02 0.46,0.02l0,8.79c-0.17,0 -0.32,0.01 -0.46,0.01c-0.14,0 -0.24,0.02 -0.31,0.02l-0.14,0c-0.18,0.01 -0.27,0.09 -0.27,0.25l0,0.28l1.18,0l5.94,0l0,-0.6l0,-1.46l-0.35,0c-0.2,0 -0.28,0.13 -0.3,0.35c0,0.03 -0.01,0.08 -0.01,0.18c0,0.1 0,0.24 -0.02,0.45c-0.01,0.21 -0.02,0.35 -0.02,0.48l-4.53,0l0,-4.13l3.95,0l0,-0.58l-3.95,0l0,-4l4.53,0c0.02,0.61 0.05,0.99 0.05,1.12c0.02,0.22 0.1,0.33 0.3,0.33l0.35,0l0,-1.45l0,-0.59l-5.94,0zm23.35,0l-0.63,0l-1.22,0l0,0.27c0,0.15 0.1,0.23 0.28,0.25l0.14,0c0.07,0 0.19,0.01 0.33,0.01c0.14,0 0.3,0.02 0.47,0.02l0,7.75c0,0.13 0,0.27 0.02,0.41l-6.42,-8.58c-0.04,-0.06 -0.07,-0.1 -0.11,-0.12c-0.04,-0.01 -0.08,-0.02 -0.15,-0.02l-0.35,0l-1.19,0l0,0.28c0,0.15 0.1,0.23 0.28,0.25l0.14,0c0.07,0 0.17,0.01 0.31,0.01c0.14,0 0.29,0.02 0.46,0.02l0,8.79c-0.17,0 -0.32,0.01 -0.46,0.01c-0.14,0 -0.24,0.02 -0.31,0.02l-0.14,0c-0.18,0.01 -0.28,0.09 -0.28,0.25l0,0.28l1.19,0l0.61,0l1.22,0l0,-0.28c0,-0.16 -0.1,-0.24 -0.28,-0.25l-0.14,0c-0.07,0 -0.19,-0.02 -0.33,-0.02c-0.14,0 -0.3,-0.01 -0.47,-0.01l0,-7.77c0,-0.13 0,-0.27 -0.01,-0.41l6.44,8.6c0.07,0.1 0.14,0.14 0.25,0.14l0.35,0l0,-9.35c0.17,0 0.31,-0.02 0.45,-0.02c0.14,0 0.25,-0.01 0.32,-0.01l0.13,0c0.18,-0.02 0.28,-0.1 0.28,-0.25l0,-0.27l-1.18,0zm27.32,8.29c-0.03,-0.03 -0.07,-0.06 -0.12,-0.06c-0.02,0 -0.04,0 -0.07,0.02c-0.01,0.01 -0.04,0.04 -0.07,0.05c-0.19,0.18 -0.4,0.34 -0.6,0.48c-0.19,0.14 -0.4,0.24 -0.64,0.33c-0.24,0.1 -0.49,0.17 -0.77,0.21c-0.28,0.05 -0.59,0.07 -0.94,0.07c-0.56,0 -1.11,-0.09 -1.58,-0.3c-0.49,-0.2 -0.9,-0.49 -1.25,-0.87c-0.35,-0.38 -0.64,-0.86 -0.84,-1.4c-0.19,-0.55 -0.29,-1.18 -0.29,-1.88c0,-0.68 0.1,-1.3 0.29,-1.85c0.21,-0.54 0.49,-1 0.86,-1.4c0.36,-0.37 0.79,-0.67 1.3,-0.88c0.5,-0.21 1.05,-0.31 1.65,-0.31c0.9,0 1.72,0.14 2.45,0.47c0.04,0.89 0.08,1.41 0.08,1.52c0.02,0.23 0.1,0.34 0.3,0.34l0.33,0l0,-2.24c-1.17,-0.48 -2.24,-0.7 -3.16,-0.7c-0.71,0 -1.36,0.11 -1.96,0.36c-0.59,0.25 -1.12,0.59 -1.54,1.04c-0.43,0.45 -0.76,0.98 -0.99,1.59c-0.24,0.62 -0.35,1.31 -0.35,2.06c0,0.77 0.12,1.46 0.35,2.09c0.22,0.63 0.54,1.15 0.95,1.59c0.4,0.45 0.89,0.79 1.47,1.03c0.57,0.23 1.19,0.36 1.87,0.36c0.41,0 0.79,-0.03 1.14,-0.1c0.33,-0.07 0.66,-0.17 0.95,-0.29c0.28,-0.13 0.55,-0.28 0.78,-0.45c0.24,-0.18 0.47,-0.36 0.68,-0.59l-0.28,-0.29zm17.55,-3.35c0,-0.75 -0.12,-1.45 -0.35,-2.07c-0.22,-0.62 -0.54,-1.15 -0.96,-1.6c-0.42,-0.44 -0.91,-0.79 -1.49,-1.03c-0.57,-0.24 -1.23,-0.37 -1.93,-0.37c-0.7,0 -1.33,0.13 -1.9,0.37c-0.58,0.24 -1.08,0.59 -1.5,1.03c-0.42,0.45 -0.74,0.98 -0.97,1.6c-0.22,0.62 -0.35,1.32 -0.35,2.07c0,0.77 0.13,1.47 0.35,2.09c0.23,0.61 0.55,1.15 0.97,1.59c0.42,0.45 0.92,0.79 1.5,1.03c0.57,0.23 1.2,0.36 1.9,0.36c0.7,0 1.36,-0.13 1.93,-0.36c0.58,-0.24 1.07,-0.58 1.49,-1.03c0.42,-0.44 0.74,-0.98 0.96,-1.59c0.23,-0.62 0.35,-1.32 0.35,-2.09zm-0.75,0c0,0.7 -0.09,1.32 -0.28,1.86c-0.2,0.55 -0.47,1.03 -0.82,1.4c-0.35,0.38 -0.77,0.69 -1.26,0.89c-0.49,0.19 -1.02,0.29 -1.62,0.29c-0.59,0 -1.12,-0.1 -1.61,-0.29c-0.49,-0.2 -0.91,-0.51 -1.26,-0.89c-0.35,-0.37 -0.63,-0.85 -0.83,-1.4c-0.19,-0.54 -0.28,-1.16 -0.28,-1.86c0,-0.68 0.09,-1.31 0.28,-1.86c0.2,-0.55 0.48,-1.02 0.83,-1.4c0.35,-0.38 0.77,-0.69 1.26,-0.88c0.49,-0.2 1.02,-0.31 1.61,-0.31c0.6,0 1.13,0.11 1.62,0.31c0.49,0.19 0.91,0.5 1.26,0.88c0.35,0.38 0.62,0.85 0.82,1.4c0.19,0.55 0.28,1.18 0.28,1.86zm20.62,-4.42c0.18,-0.02 0.28,-0.1 0.28,-0.25l0,-0.27l-1.18,0l-0.5,0c-0.07,0 -0.11,0 -0.16,0.01c-0.04,0.02 -0.07,0.06 -0.11,0.12l-3.89,6.87c-0.04,0.07 -0.07,0.14 -0.1,0.21c-0.03,0.07 -0.05,0.15 -0.08,0.22c-0.06,-0.15 -0.11,-0.29 -0.18,-0.42l-4.01,-6.88c-0.04,-0.06 -0.07,-0.1 -0.11,-0.12c-0.04,-0.01 -0.08,-0.01 -0.15,-0.01l-0.49,0l-1.19,0l0,0.27c0,0.15 0.09,0.23 0.28,0.25l0.14,0c0.07,0 0.16,0.01 0.3,0.01c0.14,0 0.3,0.02 0.47,0.02l0,8.79c-0.17,0 -0.33,0.01 -0.47,0.01c-0.14,0 -0.23,0.02 -0.3,0.02l-0.14,0c-0.19,0.01 -0.28,0.09 -0.28,0.25l0,0.28l1.19,0l0.61,0l1.22,0l0,-0.28c0,-0.16 -0.1,-0.24 -0.28,-0.25l-0.14,0c-0.07,0 -0.18,-0.02 -0.32,-0.02c-0.14,0 -0.31,-0.01 -0.48,-0.01l0,-7.88c0,-0.13 0,-0.26 -0.01,-0.4l4,6.93c0.07,0.13 0.17,0.19 0.28,0.19l0.11,0c0.13,0 0.21,-0.06 0.28,-0.19l3.9,-6.93c-0.02,0.14 -0.02,0.27 -0.02,0.4l0,7.88c-0.17,0 -0.33,0.01 -0.47,0.01c-0.14,0 -0.26,0.02 -0.33,0.02l-0.14,0c-0.18,0.01 -0.28,0.09 -0.28,0.25l0,0.28l1.22,0l0.63,0l1.18,0l0,-0.28c0,-0.16 -0.1,-0.24 -0.28,-0.25l-0.13,0c-0.07,0 -0.18,-0.02 -0.32,-0.02c-0.14,0 -0.28,-0.01 -0.45,-0.01l0,-8.79c0.17,0 0.31,-0.02 0.45,-0.02c0.14,0 0.25,-0.01 0.32,-0.01l0.13,0zm20.49,0c0.19,-0.02 0.28,-0.1 0.28,-0.25l0,-0.27l-1.17,0l-0.51,0c-0.07,0 -0.11,0 -0.15,0.01c-0.04,0.02 -0.07,0.06 -0.11,0.12l-3.89,6.87c-0.05,0.07 -0.07,0.14 -0.1,0.21c-0.03,0.07 -0.06,0.15 -0.09,0.22c-0.05,-0.15 -0.11,-0.29 -0.18,-0.42l-4,-6.88c-0.04,-0.06 -0.07,-0.1 -0.11,-0.12c-0.05,-0.01 -0.09,-0.01 -0.16,-0.01l-0.49,0l-1.19,0l0,0.27c0,0.15 0.1,0.23 0.28,0.25l0.14,0c0.07,0 0.17,0.01 0.31,0.01c0.14,0 0.29,0.02 0.46,0.02l0,8.79c-0.17,0 -0.32,0.01 -0.46,0.01c-0.14,0 -0.24,0.02 -0.31,0.02l-0.14,0c-0.18,0.01 -0.28,0.09 -0.28,0.25l0,0.28l1.19,0l0.62,0l1.22,0l0,-0.28c0,-0.16 -0.1,-0.24 -0.28,-0.25l-0.14,0c-0.07,0 -0.19,-0.02 -0.33,-0.02c-0.14,0 -0.3,-0.01 -0.47,-0.01l0,-7.88c0,-0.13 0,-0.26 -0.02,-0.4l4.01,6.93c0.07,0.13 0.17,0.19 0.28,0.19l0.11,0c0.13,0 0.21,-0.06 0.28,-0.19l3.89,-6.93c-0.01,0.14 -0.01,0.27 -0.01,0.4l0,7.88c-0.17,0 -0.34,0.01 -0.48,0.01c-0.14,0 -0.25,0.02 -0.32,0.02l-0.14,0c-0.18,0.01 -0.28,0.09 -0.28,0.25l0,0.28l1.22,0l0.63,0l1.17,0l0,-0.28c0,-0.16 -0.09,-0.24 -0.28,-0.25l-0.12,0c-0.07,0 -0.18,-0.02 -0.32,-0.02c-0.14,0 -0.28,-0.01 -0.45,-0.01l0,-8.79c0.17,0 0.31,-0.02 0.45,-0.02c0.14,0 0.25,-0.01 0.32,-0.01l0.12,0zm16.94,-0.52l-0.71,0l-1.36,0l0,0.27c0,0.15 0.1,0.23 0.28,0.25l0.17,0c0.1,0 0.24,0.01 0.41,0.01c0.16,0 0.33,0.02 0.5,0.02l0,5.57c0,0.46 -0.07,0.88 -0.21,1.29c-0.14,0.4 -0.34,0.75 -0.6,1.05c-0.27,0.29 -0.58,0.51 -0.95,0.68c-0.38,0.17 -0.8,0.25 -1.28,0.25c-0.47,0 -0.91,-0.08 -1.29,-0.25c-0.37,-0.17 -0.7,-0.4 -0.95,-0.7c-0.26,-0.29 -0.45,-0.64 -0.59,-1.03c-0.14,-0.4 -0.21,-0.83 -0.21,-1.29l0,-5.57c0.17,0 0.34,-0.02 0.51,-0.02c0.17,0 0.31,-0.01 0.4,-0.01l0.17,0c0.18,-0.02 0.28,-0.1 0.28,-0.25l0,-0.27l-1.36,0l-0.71,0l-1.18,0l0,0.27c0,0.15 0.09,0.23 0.27,0.25l0.14,0c0.07,0 0.17,0.01 0.31,0.01c0.14,0 0.29,0.02 0.46,0.02l0,5.57c0,0.54 0.08,1.05 0.25,1.52c0.17,0.48 0.42,0.9 0.74,1.25c0.33,0.35 0.73,0.63 1.19,0.83c0.47,0.19 1,0.29 1.57,0.29c0.58,0 1.09,-0.1 1.56,-0.29c0.46,-0.2 0.86,-0.48 1.19,-0.83c0.32,-0.35 0.57,-0.77 0.74,-1.25c0.17,-0.47 0.26,-0.98 0.26,-1.52l0,-5.57c0.17,0 0.31,-0.02 0.45,-0.02c0.14,0 0.25,-0.01 0.32,-0.01l0.13,0c0.18,-0.02 0.28,-0.1 0.28,-0.25l0,-0.27l-1.18,0zm18.04,0l-0.63,0l-1.22,0l0,0.27c0,0.15 0.1,0.23 0.28,0.25l0.14,0c0.07,0 0.18,0.01 0.32,0.01c0.14,0 0.31,0.02 0.48,0.02l0,7.75c0,0.13 0,0.27 0.01,0.41l-6.41,-8.58c-0.04,-0.06 -0.07,-0.1 -0.11,-0.12c-0.05,-0.01 -0.09,-0.02 -0.16,-0.02l-0.35,0l-1.19,0l0,0.28c0,0.15 0.1,0.23 0.28,0.25l0.14,0c0.07,0 0.17,0.01 0.31,0.01c0.14,0 0.29,0.02 0.46,0.02l0,8.79c-0.17,0 -0.32,0.01 -0.46,0.01c-0.14,0 -0.24,0.02 -0.31,0.02l-0.14,0c-0.18,0.01 -0.28,0.09 -0.28,0.25l0,0.28l1.19,0l0.62,0l1.22,0l0,-0.28c0,-0.16 -0.1,-0.24 -0.28,-0.25l-0.14,0c-0.07,0 -0.2,-0.02 -0.34,-0.02c-0.14,0 -0.29,-0.01 -0.46,-0.01l0,-7.77c0,-0.13 0,-0.27 -0.02,-0.41l6.44,8.6c0.07,0.1 0.14,0.14 0.26,0.14l0.35,0l0,-9.35c0.16,0 0.3,-0.02 0.44,-0.02c0.14,0 0.26,-0.01 0.33,-0.01l0.12,0c0.18,-0.02 0.28,-0.1 0.28,-0.25l0,-0.27l-1.17,0zm12.02,0.52c0.18,-0.02 0.27,-0.1 0.27,-0.25l0,-0.28l-1.18,0l-0.71,0l-1.19,0l0,0.28c0,0.15 0.1,0.23 0.28,0.25l0.14,0c0.07,0 0.17,0.01 0.31,0.01c0.14,0 0.29,0.02 0.46,0.02l0,8.79c-0.17,0 -0.32,0.01 -0.46,0.01c-0.14,0 -0.24,0.02 -0.31,0.02l-0.14,0c-0.18,0.01 -0.28,0.09 -0.28,0.25l0,0.28l1.19,0l0.71,0l1.18,0l0,-0.28c0,-0.16 -0.09,-0.24 -0.27,-0.25l-0.14,0c-0.07,0 -0.17,-0.02 -0.31,-0.02c-0.14,0 -0.29,-0.01 -0.46,-0.01l0,-8.79c0.17,0 0.32,-0.02 0.46,-0.02c0.14,0 0.24,-0.01 0.31,-0.01l0.14,0zm16.13,-0.52l-0.2,0l-7.29,0l-0.21,0l-0.1,0l0,2.04l0.35,0c0.2,0 0.28,-0.11 0.3,-0.33c0,-0.1 0.02,-0.46 0.05,-1.11l2.9,0l0,8.74c-0.17,0 -0.31,0.01 -0.45,0.01c-0.14,0 -0.25,0.02 -0.32,0.02l-0.13,0c-0.18,0.01 -0.28,0.09 -0.28,0.25l0,0.28l1.18,0l0.71,0l1.19,0l0,-0.28c0,-0.16 -0.09,-0.24 -0.28,-0.25l-0.14,0c-0.07,0 -0.16,-0.02 -0.3,-0.02c-0.14,0 -0.3,-0.01 -0.47,-0.01l0,-8.74l2.89,0c0.04,0.72 0.05,1.08 0.05,1.11c0.02,0.22 0.12,0.33 0.31,0.33l0.34,0l0,-2.04l-0.1,0zm16.34,0l-0.07,0l-0.56,0l-0.11,0l-1.4,0l0,0.27c0,0.15 0.09,0.23 0.28,0.25l0.11,0c0.05,0 0.12,0.01 0.24,0.01c0.11,0 0.23,0.02 0.37,0.02l-2.59,4.17c-0.07,0.11 -0.12,0.21 -0.16,0.31c-0.05,0.09 -0.09,0.21 -0.13,0.3c-0.04,-0.09 -0.08,-0.21 -0.13,-0.3c-0.04,-0.1 -0.09,-0.2 -0.16,-0.31l-2.61,-4.17c0.14,0 0.27,-0.02 0.38,-0.02c0.11,0 0.2,-0.01 0.25,-0.01l0.1,0c0.18,-0.02 0.28,-0.1 0.28,-0.25l0,-0.27l-1.4,0l-0.11,0l-0.56,0l-0.07,0l-0.45,0l0,0.27c0,0.15 0.1,0.23 0.28,0.25c0.24,0.01 0.42,0.03 0.52,0.03l3.32,5.26l0,3.53c-0.17,0 -0.33,0.01 -0.47,0.01c-0.14,0 -0.23,0.02 -0.3,0.02l-0.13,0c-0.18,0.01 -0.28,0.09 -0.28,0.25l0,0.28l1.18,0l0.71,0l1.18,0l0,-0.28c0,-0.16 -0.09,-0.24 -0.27,-0.25l-0.14,0c-0.07,0 -0.17,-0.02 -0.31,-0.02c-0.14,0 -0.29,-0.01 -0.46,-0.01l0,-3.53l3.32,-5.26c0.11,0 0.28,-0.02 0.52,-0.03c0.18,-0.02 0.28,-0.1 0.28,-0.25l0,-0.27l-0.45,0z"/>
  </g>
 </g>
</svg>